<svg xmlns="http://www.w3.org/2000/svg" version="1.1" xmlns:xlink="http://www.w3.org/1999/xlink" xmlns:svgjs="http://svgjs.dev/svgjs" width="1000" height="1000" viewBox="0 0 1000 1000"><rect width="1000" height="1000" fill="#ffffff"></rect><g transform="matrix(0.7,0,0,0.7,149.57575783810756,311.12315371914735)"><svg viewBox="0 0 396 214" data-background-color="#ffffff" preserveAspectRatio="xMidYMid meet" height="540" width="1000" xmlns="http://www.w3.org/2000/svg" xmlns:xlink="http://www.w3.org/1999/xlink"><defs></defs><g id="tight-bounds" transform="matrix(1,0,0,1,0.24000014841521988,-0.06972194681887345)"><svg viewBox="0 0 395.52 214.13944389363775" height="214.13944389363775" width="395.52"><g><svg viewBox="0 0 456.58353371162787 247.2" height="214.13944389363775" width="395.52"><g><svg viewBox="0 0 246.12209302325581 247.2" height="247.2" width="246.12209302325581"><g><svg viewBox="0 0 246.12209302325581 247.2" height="247.2" width="246.12209302325581"><g><svg viewBox="0 0 246.12209302325581 247.2" height="247.2" width="246.12209302325581"><g transform="matrix(1,0,0,1,0,0)"><svg width="246.12209302325581" viewBox="3.700000047683716 -34.400001525878906 34.25 34.400001525878906" height="247.2" data-palette-color="#4790fc"><path d="M37.95 0L28.3 0 13.85-16.7 13.85 0 3.7 0 3.7-34.4 13.35-34.4 27.8-17.45 27.8-34.4 37.95-34.4 37.95 0Z" opacity="1" transform="matrix(1,0,0,1,0,0)" fill="#4790fc" class="undefined-text-0" data-fill-palette-color="primary" id="text-0"></path></svg></g></svg></g></svg></g></svg></g><g transform="matrix(1,0,0,1,304.4800802232558,47.54827325581395)"><svg viewBox="0 0 152.10345348837208 152.10345348837208" height="152.10345348837208" width="152.10345348837208"><g data-palette-color="#2398ed"><rect width="41.57494395348837" height="152.10345348837208" fill="#2398ed" stroke="transparent" data-fill-palette-color="accent" x="0" fill-opacity="1"></rect><rect width="41.57494395348837" height="152.10345348837208" fill="#2398ed" stroke="transparent" data-fill-palette-color="accent" x="50.701151162790694" fill-opacity="0.75"></rect><rect width="41.57494395348837" height="152.10345348837208" fill="#2398ed" stroke="transparent" data-fill-palette-color="accent" x="101.40230232558139" fill-opacity="0.5"></rect></g></svg></g></svg></g></svg><rect width="395.52" height="214.13944389363775" fill="none" stroke="none" visibility="hidden"></rect></g></svg></g></svg>