<svg xmlns="http://www.w3.org/2000/svg" version="1.1" xmlns:xlink="http://www.w3.org/1999/xlink" xmlns:svgjs="http://svgjs.dev/svgjs" width="31.88" height="32"  viewBox="0 0 1000 623"><g transform="matrix(1,0,0,1,-0.6060606060606233,0.2522267206477409)"><svg viewBox="0 0 396 247" data-background-color="#ffffff" preserveAspectRatio="xMidYMid meet" height="623" width="1000" xmlns="http://www.w3.org/2000/svg" xmlns:xlink="http://www.w3.org/1999/xlink"><defs></defs><g id="tight-bounds" transform="matrix(1,0,0,1,0.2400000000000091,-0.09999999999999432)"><svg viewBox="0 0 395.52 247.2" height="247.2" width="395.52"><g><svg></svg></g><g><svg viewBox="0 0 395.52 247.2" height="247.2" width="395.52"><g transform="matrix(3.4055555555555554, 0, 0, 3.4055555555555554, 75.16, 1)"><svg xmlns="http://www.w3.org/2000/svg" xmlns:xlink="http://www.w3.org/1999/xlink" version="1.1" x="0" y="0" viewBox="13 14.674 72 72" enable-background="new 0 0 100 100" xml:space="preserve" height="72" width="72" class="icon-none" data-fill-palette-color="accent" id="none"><path d="M82.5 14.674h-66c-1.657 0-3.5 0.843-3.5 2.5v51.518l0.982 0.982H13.5l16.5 16.5v-0.482l0.982 0.982H82.5c1.657 0 2.5-1.843 2.5-3.5v-66C85 15.517 84.157 14.674 82.5 14.674zM27 78.449l-5.775-5.775H27V78.449zM82 83.674H32.225L30 81.449v-9.758c0-1.657-0.36-2.018-2.018-2.018h-9.758L16 67.449V17.674h66V83.674z" fill="#61777f" data-fill-palette-color="accent"></path></svg></g><rect width="348.05760000000004" height="88.34373999227589" fill="#ffffff" y="79.42813000386205" x="23.731199999999973" data-fill-palette-color="quaternary"></rect><g transform="matrix(1,0,0,1,39.55199999999999,93.5950344827586)"><svg viewBox="0 0 316.416 60.00993103448277" height="60.00993103448277" width="316.416"><g><svg viewBox="0 0 316.416 60.00993103448277" height="60.00993103448277" width="316.416"><g><svg viewBox="0 0 316.416 60.00993103448277" height="60.00993103448277" width="316.416"><g><svg viewBox="0 0 316.416 60.00993103448277" height="60.00993103448277" width="316.416"><g><svg viewBox="0 0 316.416 60.00993103448277" height="60.00993103448277" width="316.416"><g><svg viewBox="0 0 316.416 60.00993103448277" height="60.00993103448277" width="316.416"><g transform="matrix(1,0,0,1,0,0)"><svg width="316.416" viewBox="-1.15 -34.05 182.69 34.65" height="60.00993103448277" data-palette-color="#61777f"><path d="M38.95-33.3Q41-33.3 41-32L41-32Q41-31.65 40.95-31.5L40.95-31.5Q40.8-31 40.5-30.73 40.2-30.45 39.65-30.1L39.65-30.1Q38.9-29.65 38.4-29.1 37.9-28.55 37.55-27.4L37.55-27.4 31.35-5.2Q30.5-2.2 29.23-1 27.95 0.2 25.7 0.2L25.7 0.2Q23.7 0.2 22.38-0.98 21.05-2.15 19.9-4.6L19.9-4.6 12.35-20.5 8.15-5.9Q8-5.25 8-4.75L8-4.75Q8-4.1 8.22-3.68 8.45-3.25 8.85-2.8L8.85-2.8Q9.4-2.15 9.4-1.7L9.4-1.7Q9.4-1.4 9.35-1.25L9.35-1.25Q9.15-0.55 8.45-0.28 7.75 0 6.35 0L6.35 0 0.9 0Q-1.15 0-1.15-1.3L-1.15-1.3Q-1.15-1.65-1.1-1.8L-1.1-1.8Q-0.95-2.3-0.65-2.58-0.35-2.85 0.2-3.2L0.2-3.2Q0.95-3.65 1.45-4.2 1.95-4.75 2.3-5.9L2.3-5.9 8.65-28.35 7.85-30Q7.35-31 7.35-31.75L7.35-31.75Q7.35-33.3 9.35-33.3L9.35-33.3 16.75-33.3Q18.35-33.3 19.18-32.58 20-31.85 20.95-30L20.95-30 28.25-15.35 31.7-27.4Q31.85-28.1 31.85-28.55L31.85-28.55Q31.85-29.2 31.63-29.63 31.4-30.05 31-30.5L31-30.5Q30.45-31.15 30.45-31.6L30.45-31.6Q30.45-31.9 30.5-32.05L30.5-32.05Q30.7-32.75 31.4-33.02 32.1-33.3 33.5-33.3L33.5-33.3 38.95-33.3ZM60.7-34.05Q67-34.05 70.55-31.08 74.1-28.1 74.1-22.5L74.1-22.5Q74.1-19.85 73.3-16.8L73.3-16.8Q71.8-11.2 68.65-7.3 65.5-3.4 61.15-1.4 56.8 0.6 51.7 0.6L51.7 0.6Q45.45 0.6 41.9-2.38 38.35-5.35 38.35-10.95L38.35-10.95Q38.35-13.5 39.2-16.8L39.2-16.8Q40.65-22.35 43.77-26.23 46.9-30.1 51.22-32.08 55.55-34.05 60.7-34.05L60.7-34.05ZM59.8-29.15Q58.3-29.15 57.1-27.95 55.9-26.75 54.72-24.03 53.55-21.3 52.2-16.45L52.2-16.45Q50.2-9.45 50.2-6.8L50.2-6.8Q50.2-5.25 50.75-4.55 51.3-3.85 52.5-3.85L52.5-3.85Q54-3.85 55.2-5.08 56.4-6.3 57.55-9 58.7-11.7 60.1-16.45L60.1-16.45Q62.05-23.35 62.05-26.15L62.05-26.15Q62.05-27.75 61.5-28.45 60.95-29.15 59.8-29.15L59.8-29.15ZM111.55-33.3Q114.3-33.3 114.3-31.05L114.3-31.05Q114.3-30.35 114-29.3L114-29.3 112.8-25.25Q112.25-23.4 111.45-22.65 110.65-21.9 109.15-21.9L109.15-21.9Q107.9-21.9 107.22-22.55 106.55-23.2 105.95-24.6L105.95-24.6 105.09-26.65Q104.7-27.6 104.25-27.95 103.8-28.3 102.84-28.3L102.84-28.3 101.7-28.3 95.34-5.95Q95.2-5.3 95.2-4.8L95.2-4.8Q95.2-4.2 95.37-3.8 95.55-3.4 95.9-2.95L95.9-2.95Q96.34-2.25 96.34-1.8L96.34-1.8Q96.34-1.7 96.25-1.3L96.25-1.3Q96-0.65 95.27-0.35 94.55-0.05 93.2-0.05L93.2-0.05 81.45-0.05Q80.4-0.05 79.82-0.4 79.25-0.75 79.25-1.4L79.25-1.4Q79.25-1.7 79.4-2L79.4-2Q79.59-2.45 79.87-2.68 80.15-2.9 80.7-3.25L80.7-3.25Q81.45-3.7 81.95-4.25 82.45-4.8 82.8-5.95L82.8-5.95 89.09-28.3 87.95-28.3Q86.84-28.3 86.15-27.95 85.45-27.6 84.65-26.65L84.65-26.65 83-24.6Q81.84-23.25 80.77-22.58 79.7-21.9 78.45-21.9L78.45-21.9Q77.3-21.9 76.65-22.5 76-23.1 76-24.15L76-24.15Q76-24.65 76.15-25.25L76.15-25.25 77.45-29.8Q77.84-31.2 78.34-31.93 78.84-32.65 79.77-32.98 80.7-33.3 82.4-33.3L82.4-33.3 111.55-33.3ZM142.09-33.3Q143.94-33.3 144.97-32.5 145.99-31.7 145.99-30.3L145.99-30.3Q145.99-29.6 145.79-28.95L145.79-28.95 144.49-24.3Q144.14-22.95 143.47-22.43 142.79-21.9 141.54-21.9L141.54-21.9Q140.34-21.9 139.67-22.43 138.99-22.95 138.64-24.15L138.64-24.15 137.84-27Q137.59-27.9 137.24-28.2 136.89-28.5 135.89-28.5L135.89-28.5 130.64-28.5 128.14-19.6 130.34-19.6Q130.69-19.6 131.29-20.1L131.29-20.1 132.99-21.6Q133.74-22.25 134.29-22.55 134.84-22.85 135.64-22.85L135.64-22.85Q136.54-22.85 137.12-22.38 137.69-21.9 137.69-21.15L137.69-21.15Q137.69-20.95 137.59-20.55L137.59-20.55 135.54-13.6Q135.24-12.5 134.52-11.98 133.79-11.45 132.94-11.45L132.94-11.45Q131.54-11.45 130.84-12.9L130.84-12.9 129.99-14.65Q129.64-15.4 128.89-15.4L128.89-15.4 126.94-15.4 123.99-4.8 128.39-4.8Q129.34-4.8 130.07-5.18 130.79-5.55 131.64-6.5L131.64-6.5 134.64-9.8Q135.44-10.65 136.17-11.03 136.89-11.4 137.94-11.4L137.94-11.4Q139.04-11.4 139.74-10.9 140.44-10.4 140.44-9.4L140.44-9.4Q140.44-9 140.29-8.45L140.29-8.45 138.84-3.4Q138.29-1.5 137.24-0.75 136.19 0 134.19 0L134.19 0 110.34 0Q109.29 0 108.72-0.35 108.14-0.7 108.14-1.3L108.14-1.3Q108.14-1.6 108.29-1.95L108.29-1.95Q108.49-2.5 108.94-2.8 109.39-3.1 109.49-3.15L109.49-3.15Q110.29-3.65 110.79-4.17 111.29-4.7 111.64-5.9L111.64-5.9 117.79-27.45Q117.99-28.1 117.99-28.65L117.99-28.65Q117.99-29.25 117.82-29.65 117.64-30.05 117.29-30.5L117.29-30.5Q116.84-31.15 116.84-31.55L116.84-31.55Q116.84-31.7 116.94-32.1L116.94-32.1Q117.14-32.75 117.84-33.02 118.54-33.3 119.89-33.3L119.89-33.3 142.09-33.3ZM166.44-33.3Q173.94-33.3 177.74-30.43 181.54-27.55 181.54-22L181.54-22Q181.54-19.25 180.54-15.65L180.54-15.65Q178.89-9.85 176.09-6.45 173.29-3.05 168.72-1.5 164.14 0.05 156.99 0L156.99 0 143.39-0.05Q142.34-0.05 141.77-0.4 141.19-0.75 141.19-1.35L141.19-1.35Q141.19-1.65 141.34-2L141.34-2Q141.49-2.45 141.77-2.65 142.04-2.85 142.59-3.2L142.59-3.2Q143.39-3.65 143.87-4.2 144.34-4.75 144.69-5.95L144.69-5.95 150.79-27.45Q150.99-28.1 150.99-28.7L150.99-28.7Q150.99-29.25 150.81-29.63 150.64-30 150.34-30.5L150.34-30.5Q149.89-31.15 149.89-31.55L149.89-31.55Q149.89-31.7 149.99-32.1L149.99-32.1Q150.19-32.75 150.87-33.02 151.54-33.3 152.94-33.3L152.94-33.3 166.44-33.3ZM167.74-16.75Q169.04-21.45 169.04-24.15L169.04-24.15Q169.04-26.8 167.94-27.8 166.84-28.8 164.79-28.8L164.79-28.8 163.69-28.8 156.94-4.5 158.14-4.5Q160.44-4.5 162.02-5.48 163.59-6.45 164.94-9.08 166.29-11.7 167.74-16.75L167.74-16.75Z" opacity="1" transform="matrix(1,0,0,1,0,0)" fill="#61777f" class="undefined-text-0" data-fill-palette-color="primary" id="text-0"></path></svg></g></svg></g></svg></g></svg></g><g></g></svg></g></svg></g></svg></g></svg></g></svg><rect width="395.52" height="247.2" fill="none" stroke="none" visibility="hidden"></rect></g></svg></g></svg>